<svg width="60" height="70" viewBox="0 0 60 70" fill="none" xmlns="http://www.w3.org/2000/svg">
<g filter="url(#filter0_f)">
<ellipse cx="30" cy="64.5" rx="9" ry="1.5" fill="#202020" fill-opacity="0.5"/>
</g>
<circle cx="29.4546" cy="20.7273" r="12" fill="#A80B32"/>
<path d="M30 0C18.3682 0 8.90625 9.57916 8.90625 21.2109C8.90625 25.3482 10.1047 29.3564 12.372 32.7997L30 60L47.628 32.7997C49.8953 29.3564 51.0938 25.3482 51.0938 21.2109C51.0938 9.57916 41.6318 0 30 0ZM30 31.7578C24.1841 31.7578 19.4531 27.0268 19.4531 21.2109C19.4531 15.3951 24.1841 10.5469 30 10.5469C35.8159 10.5469 40.5469 15.3951 40.5469 21.2109C40.5469 27.0268 35.8159 31.7578 30 31.7578Z" fill="#F0144B"/>
<defs>
<filter id="filter0_f" x="17" y="59" width="26" height="11" filterUnits="userSpaceOnUse" color-interpolation-filters="sRGB">
<feFlood flood-opacity="0" result="BackgroundImageFix"/>
<feBlend mode="normal" in="SourceGraphic" in2="BackgroundImageFix" result="shape"/>
<feGaussianBlur stdDeviation="2" result="effect1_foregroundBlur"/>
</filter>
</defs>
</svg>
